<svg width="265" height="265" viewBox="0 0 265 265" fill="none" xmlns="http://www.w3.org/2000/svg">
<rect width="265" height="265" fill="#B5E5CF"/>
<path d="M145.718 162.683L148.642 162.683L148.717 159.759C148.848 154.605 149.602 150.531 150.863 147.431L150.867 147.422L150.87 147.413C152.082 144.375 154.442 141.204 158.183 137.937L158.212 137.912L158.24 137.886C162.858 133.643 167.035 129.666 170.77 125.957C174.741 122.013 177.92 117.745 180.272 113.148C182.793 108.29 184 102.694 184 96.4516C184 87.2305 181.982 79.2495 177.77 72.6727C173.574 66.0545 167.558 61.1154 159.853 57.8364C152.193 54.5762 143.167 53 132.86 53C123.477 53 114.892 54.5535 107.148 57.7146C99.3395 60.8617 93.0398 65.9008 88.3146 72.7929L88.3107 72.7987C83.5716 79.746 81.2144 88.6045 81.0006 99.1489L80.9386 102.21L84 102.21L118.871 102.21L121.768 102.21L121.869 99.3138C121.997 95.6343 122.663 92.9781 123.663 91.1486L123.672 91.1332L123.68 91.1176C124.757 89.0899 126.057 87.7508 127.525 86.9201C129.208 86.0069 130.973 85.5591 132.86 85.5591C135.431 85.5591 137.287 86.0646 138.614 86.8648L138.667 86.8969L138.722 86.9267C140.074 87.6676 141.11 88.7991 141.828 90.4796L141.843 90.5148L141.859 90.5496C142.648 92.2737 143.129 94.7008 143.129 97.9839C143.129 100.396 142.613 102.633 141.584 104.734C140.508 106.93 138.918 109.169 136.755 111.443C134.524 113.79 131.839 116.261 128.689 118.857L128.664 118.878L128.638 118.9C124.782 122.224 121.674 125.882 119.359 129.886C117.048 133.883 115.432 138.359 114.485 143.282L114.481 143.3L114.478 143.317C113.616 148.098 113.196 153.56 113.196 159.683L113.196 162.683L116.196 162.683L145.718 162.683ZM147.128 205.308L147.139 205.298L147.151 205.287C151.325 201.381 153.45 196.466 153.45 190.737C153.45 185.011 151.327 180.122 147.14 176.278C142.928 172.342 137.527 170.473 131.214 170.473C124.901 170.473 119.5 172.342 115.289 176.278C111.101 180.122 108.979 185.011 108.979 190.737C108.979 196.466 111.103 201.381 115.278 205.287L115.289 205.298L115.301 205.308C119.515 209.172 124.913 211 131.214 211C137.516 211 142.913 209.172 147.128 205.308Z" fill="white" stroke="black" stroke-width="6"/>
</svg>
